<svg xmlns="http://www.w3.org/2000/svg" version="1.1" viewBox="0 0 1024 1024">
<path d="M0 0 C337.92 0 675.84 0 1024 0 C1024 337.92 1024 675.84 1024 1024 C686.08 1024 348.16 1024 0 1024 C0 686.08 0 348.16 0 0 Z " fill="#B60D2F" transform="translate(0,0)"/>
<path d="M0 0 C2.59656075 0.5135005 5.19574164 0.99667909 7.80029297 1.46728516 C17.4634768 3.30920858 26.70082797 6.35236242 35.99169922 9.54150391 C37.21300537 9.96069092 38.43431152 10.37987793 39.69262695 10.81176758 C47.70469977 13.62794363 55.45658636 16.80519748 63.05419922 20.60400391 C62.59657347 24.43742204 62.13795802 28.27072122 61.67919922 32.10400391 C61.55287109 33.16232422 61.42654297 34.22064453 61.29638672 35.31103516 C61.16748047 36.38740234 61.03857422 37.46376953 60.90576172 38.57275391 C60.77057129 39.70841797 60.63538086 40.84408203 60.49609375 42.01416016 C60.19484542 44.46142836 59.8774322 46.90674799 59.54589844 49.35009766 C58.15431023 59.75517547 57.44903756 70.12236557 56.92919922 80.60400391 C56.84248758 82.26548988 56.75525046 83.92694851 56.66748047 85.58837891 C56.45702529 89.5932996 56.25357604 93.59851706 56.05419922 97.60400391 C52.75419922 97.60400391 49.45419922 97.60400391 46.05419922 97.60400391 C45.96783203 96.81380859 45.88146484 96.02361328 45.79248047 95.20947266 C43.24975961 74.79772264 38.02551907 57.22948731 24.05419922 41.60400391 C22.94625 40.35490234 22.94625 40.35490234 21.81591797 39.08056641 C8.53069062 24.94734582 -8.594298 17.78568652 -26.94580078 12.60400391 C-27.76387207 12.37165039 -28.58194336 12.13929688 -29.42480469 11.89990234 C-66.43510518 1.86296731 -108.43466153 5.80829728 -141.94580078 24.60400391 C-142.94095703 25.15830078 -143.93611328 25.71259766 -144.96142578 26.28369141 C-164.5531954 37.98277669 -177.91755915 56.57193 -184.03173828 78.45166016 C-188.06431511 94.95880751 -183.33997728 111.41948673 -175.07373047 125.80029297 C-172.2686551 130.28598493 -168.75321884 133.96686393 -164.94580078 137.60400391 C-164.37990234 138.18923828 -163.81400391 138.77447266 -163.23095703 139.37744141 C-143.17265035 158.75349276 -111.40848185 169.24603074 -85.39501953 177.43603516 C-82.76304806 178.32726898 -80.23899039 179.28252672 -77.67236328 180.33447266 C-72.97851168 182.23643243 -68.23278491 183.95191797 -63.45751953 185.63525391 C-62.67917252 185.9098494 -61.9008255 186.18444489 -61.09889221 186.46736145 C-60.2982988 186.74980209 -59.49770538 187.03224274 -58.67285156 187.32324219 C31.68755188 219.20564253 31.68755188 219.20564253 64.93701172 250.60791016 C66.89337938 252.45238225 68.91493308 254.14838673 70.99169922 255.85400391 C90.52380367 272.98880781 107.30892869 300.45952762 109.80419922 326.60400391 C109.84029297 327.36712891 109.87638672 328.13025391 109.91357422 328.91650391 C109.8742101 330.63932887 109.8742101 330.63932887 111.05419922 331.60400391 C113.84998046 365.25080751 103.49578051 399.48263036 82.05419922 425.60400391 C58.25196349 453.11973385 29.38598582 470.793586 -3.94580078 484.60400391 C-4.5685791 484.8642334 -5.19135742 485.12446289 -5.83300781 485.39257812 C-21.34091676 491.78964127 -37.67327561 495.77052609 -54.13330078 498.85400391 C-54.92559082 499.00498535 -55.71788086 499.1559668 -56.53417969 499.31152344 C-73.40839366 502.288931 -90.26441513 502.90682072 -107.36523438 502.80981445 C-110.70596939 502.791448 -114.04642645 502.78930654 -117.38720703 502.78955078 C-133.63663674 502.76465545 -149.48491018 502.39903191 -165.50830078 499.41650391 C-166.6999585 499.19873291 -167.89161621 498.98096191 -169.11938477 498.7565918 C-184.44000158 495.86938981 -199.34899273 492.08668026 -213.94580078 486.60400391 C-215.28257458 486.11704626 -216.61976465 485.63122859 -217.95751953 485.14697266 C-239.66982017 477.14041759 -260.2582597 467.41545811 -278.94580078 453.60400391 C-279.97060547 452.86408203 -280.99541016 452.12416016 -282.05126953 451.36181641 C-288.71939444 446.47692896 -294.93522143 441.27511532 -300.94580078 435.60400391 C-301.65994141 434.95431641 -302.37408203 434.30462891 -303.10986328 433.63525391 C-324.55394952 413.3608451 -340.10009302 384.20457545 -341.19189453 354.38916016 C-341.38480011 344.64350069 -340.9870659 335.16435953 -338.94580078 325.60400391 C-338.67123047 324.17314453 -338.67123047 324.17314453 -338.39111328 322.71337891 C-333.94553863 302.18689841 -322.3976814 285.39794087 -307.94580078 270.60400391 C-307.21876953 269.81509766 -306.49173828 269.02619141 -305.74267578 268.21337891 C-284.16213595 245.35399227 -249.00308797 229.51212924 -217.94580078 226.60400391 C-216.95580078 229.90400391 -215.96580078 233.20400391 -214.94580078 236.60400391 C-215.69861328 236.79994141 -216.45142578 236.99587891 -217.22705078 237.19775391 C-244.14472875 244.77651761 -269.11753723 263.11524698 -283.13330078 287.47900391 C-284.44075539 289.83722903 -285.69531704 292.21407303 -286.94580078 294.60400391 C-287.78304687 296.19728516 -287.78304687 296.19728516 -288.63720703 297.82275391 C-299.26180842 319.33823742 -300.41436246 343.49686504 -294.94580078 366.60400391 C-294.79014648 367.27963379 -294.63449219 367.95526367 -294.47412109 368.65136719 C-287.10274581 399.54199077 -268.12905166 426.55232715 -242.94580078 445.60400391 C-242.01509766 446.33876953 -241.08439453 447.07353516 -240.12548828 447.83056641 C-222.57513826 461.44963803 -202.77410993 471.10600407 -181.94580078 478.60400391 C-181.25043213 478.85964111 -180.55506348 479.11527832 -179.83862305 479.37866211 C-173.59321642 481.58246783 -167.25191654 482.90749706 -160.75830078 484.16650391 C-159.2065918 484.4787793 -159.2065918 484.4787793 -157.62353516 484.79736328 C-154.40286414 485.43273375 -151.17723333 486.02597893 -147.94580078 486.60400391 C-146.91310059 486.79744385 -145.88040039 486.99088379 -144.81640625 487.19018555 C-134.70908444 488.88229662 -124.67101164 488.9421987 -114.44482422 488.91967773 C-111.47862209 488.91653864 -108.51344145 488.93998304 -105.54736328 488.96533203 C-92.12550481 489.00872773 -79.18339152 487.78391743 -65.94580078 485.60400391 C-64.70467529 485.40218506 -63.4635498 485.20036621 -62.18481445 484.99243164 C-33.48221184 479.95684531 -4.8288182 466.84636952 17.05419922 447.60400391 C17.64620117 447.08370605 18.23820312 446.5634082 18.84814453 446.02734375 C38.5453971 428.33067951 51.54705048 404.29622433 53.24072266 377.671875 C54.22840538 352.38801352 49.08794017 329.28100542 31.61669922 310.22900391 C5.01327961 282.24747923 -31.39687686 266.56292609 -66.63330078 252.41650391 C-67.72925568 251.97535751 -67.72925568 251.97535751 -68.84735107 251.52529907 C-78.17494907 247.779046 -87.55622239 244.26013314 -97.05444336 240.9699707 C-116.65773718 234.14857508 -136.11467816 226.2239255 -154.94970703 217.51318359 C-156.97824998 216.58922396 -159.02156953 215.70756792 -161.07080078 214.83056641 C-178.37390232 207.27574803 -194.06707612 196.35853143 -207.94580078 183.60400391 C-208.68701172 182.94400391 -209.42822266 182.28400391 -210.19189453 181.60400391 C-219.59491799 172.8058533 -226.35726169 161.5527719 -230.94580078 149.60400391 C-231.1884668 148.99089355 -231.43113281 148.3777832 -231.68115234 147.74609375 C-238.85825417 128.93338746 -238.79437846 105.50517716 -231.94580078 86.60400391 C-231.59517578 85.59466797 -231.24455078 84.58533203 -230.88330078 83.54541016 C-226.25081808 71.43339809 -219.49730796 59.36972103 -210.94580078 49.60400391 C-209.72957031 48.19054687 -209.72957031 48.19054687 -208.48876953 46.74853516 C-202.24261419 39.62796361 -195.52455381 33.31622752 -187.94580078 27.60400391 C-187.41067871 27.19972168 -186.87555664 26.79543945 -186.32421875 26.37890625 C-164.53764665 10.24520463 -139.09844731 1.38871344 -112.58007812 -2.95800781 C-110.05630896 -3.37762245 -107.54338709 -3.84023435 -105.02783203 -4.30615234 C-70.76806412 -10.21473553 -33.80078992 -6.71875115 0 0 Z " fill="#FDFBFB" transform="translate(787.94580078125,247.39599609375)"/>
<path d="M0 0 C132.99 0 265.98 0 403 0 C404.65 6.93 406.3 13.86 408 21 C412.49555514 39.6395312 412.49555514 39.6395312 418 58 C415.03 58.66 412.06 59.32 409 60 C408.57589844 59.28714844 408.15179687 58.57429688 407.71484375 57.83984375 C396.13202083 38.92547577 377.83663432 31.47625605 356.8125 26.3125 C327.11718792 19.40013939 295.70253709 19.71417211 265.3449707 19.39910889 C261.56193508 19.35802511 257.77902537 19.30742914 253.99609375 19.2578125 C246.66415113 19.16295988 239.3321435 19.07799429 232 19 C232.10473071 68.41136004 232.21453607 117.82270657 232.33111694 167.23404014 C232.34488599 173.07171678 232.35861317 178.90939352 232.37231445 184.74707031 C232.37504276 185.90921311 232.37777106 187.0713559 232.38058204 188.26871514 C232.4246188 207.06902618 232.46526561 225.86934309 232.50465261 244.66966438 C232.54516363 263.97036241 232.58933392 283.27104958 232.63687855 302.57173157 C232.66608518 314.47466938 232.69246096 326.37760647 232.71517897 338.28055847 C232.73104588 346.45044716 232.75047741 354.6203226 232.77266841 362.79019654 C232.78535428 367.49889749 232.79651034 372.20758846 232.80341911 376.91630173 C232.80979389 381.23727771 232.82070003 385.55821897 232.8350333 389.87917566 C232.83941797 391.43260907 232.84221713 392.98604805 232.84316199 394.53948736 C231.95087721 420.2515853 231.95087721 420.2515853 242 443 C246.72031223 447.4670766 251.78601562 450.2143723 258 452 C258.65226562 452.19335938 259.30453125 452.38671875 259.9765625 452.5859375 C266.11780228 454.17299947 272.33675692 454.43883903 278.64453125 454.75390625 C281.26964808 454.94643519 283.49898897 455.23772712 286 456 C286 458.64 286 461.28 286 464 C231.55 464 177.1 464 121 464 C121 461.03 121 458.06 121 455 C121.99257813 454.97421875 122.98515625 454.9484375 124.0078125 454.921875 C136.22292218 454.46643737 147.48332284 452.69243092 158 446 C158.66 446 159.32 446 160 446 C160.29003906 445.40832031 160.58007812 444.81664062 160.87890625 444.20703125 C161.83152443 442.33166793 162.87550714 440.50316521 163.9375 438.6875 C169.5158201 427.39355569 169.44024676 414.31411029 169.39872742 402.01063538 C169.4041796 400.34776478 169.4109364 398.68489805 169.41886932 397.02203745 C169.43675443 392.49525213 169.43635494 387.96863203 169.43273985 383.44181979 C169.43211248 378.54426066 169.44876887 373.64675531 169.46325684 368.7492218 C169.48598329 360.27803707 169.49791764 351.8068933 169.50238609 343.33568001 C169.50886242 331.08794946 169.53182582 318.84029275 169.55872939 306.59259205 C169.60194151 286.71839535 169.63194007 266.84420176 169.65356445 246.9699707 C169.67459087 227.67145251 169.70188047 208.37295982 169.73754883 189.07446289 C169.73974765 187.88360551 169.74194648 186.69274813 169.74421193 185.46580417 C169.755282 179.49123499 169.76647473 173.51666605 169.77772844 167.54209721 C169.87083457 118.02808737 169.94246911 68.51406308 170 19 C159.45256608 19.03860462 148.90547207 19.09872801 138.35830593 19.18390274 C133.45704038 19.22285892 128.5559406 19.25529381 123.65454102 19.27099609 C57.8248615 18.71468553 57.8248615 18.71468553 1.44140625 48.30078125 C-0.73388789 50.70578645 -2.19783131 52.83440573 -3.6875 55.6875 C-4.7109375 57.60546875 -4.7109375 57.60546875 -6 59 C-9.10394717 59.66210477 -11.87979263 59.48944429 -15 59 C-14.53191538 53.85106918 -13.6266117 49.40941665 -11.81640625 44.56640625 C-10.85274983 41.53711311 -10.20872516 38.48498883 -9.5378418 35.37963867 C-8.70015769 31.67337129 -7.66514958 28.02868998 -6.625 24.375 C-4.33111252 16.27093699 -2.17080888 8.14053331 0 0 Z " fill="#FDFAFB" transform="translate(141,251)"/>
<path d="M0 0 C-1.98 4.29 -3.96 8.58 -6 13 C-6.66 13 -7.32 13 -8 13 C-9.17571451 9.32589215 -9.07366746 5.83070817 -9 2 C-10.65 2 -12.3 2 -14 2 C-14.33 2.99 -14.66 3.98 -15 5 C-15 4.34 -15 3.68 -15 3 C-16.65 3 -18.3 3 -20 3 C-16.73061378 1.13739295 -13.70063691 0.42773089 -10 -0.1875 C-8.453125 -0.45626953 -8.453125 -0.45626953 -6.875 -0.73046875 C-4 -1 -4 -1 0 0 Z " fill="#C71F42" transform="translate(749,744)"/>
<path d="M0 0 C-0.88010942 4.57252253 -3.23684013 7.31578684 -6 11 C-8.64 10.34 -11.28 9.68 -14 9 C-9.82751092 1.64847162 -9.82751092 1.64847162 -6.0625 0.3125 C-4 0 -4 0 0 0 Z " fill="#C41438" transform="translate(835,248)"/>
<path d="M0 0 C0.42969812 5.24231711 0.42969812 5.24231711 0 8 C-2.79691009 10.63238596 -4.49206847 10.97124916 -8.3125 11.1875 C-9.6428125 11.0946875 -9.6428125 11.0946875 -11 11 C-10.34 10.67 -9.68 10.34 -9 10 C-8.16374091 7.68654173 -8.16374091 7.68654173 -7.5 5 C-6.78125 2.25 -6.78125 2.25 -6 0 C-3.50907189 -1.24546405 -2.58919267 -0.7767578 0 0 Z " fill="#C61136" transform="translate(247,240)"/>
<path d="M0 0 C0.66 0 1.32 0 2 0 C1.67 2.97 1.34 5.94 1 9 C0.01 9 -0.98 9 -2 9 C-1.34 6.03 -0.68 3.06 0 0 Z " fill="#BB2D4C" transform="translate(894,623)"/>
<path d="M0 0 C0.99 0.33 1.98 0.66 3 1 C3 4.3 3 7.6 3 11 C1.04783565 7.09567131 0.49360009 4.27786748 0 0 Z " fill="#CC3958" transform="translate(551,281)"/>
<path d="M0 0 C1.32 1.65 2.64 3.3 4 5 C1.36 4.67 -1.28 4.34 -4 4 C-4 3.34 -4 2.68 -4 2 C-2.68 1.34 -1.36 0.68 0 0 Z " fill="#BE2546" transform="translate(799,246)"/>
</svg>